<svg width="24" height="24" fill="none" xmlns="http://www.w3.org/2000/svg">
  <path
    fill-rule="evenodd"
    clip-rule="evenodd"
    d="M1 12s3 7 11 7 11-7 11-7-3-7-11-7-11 7-11 7Zm2.269 0 .025-.041c.344-.556.877-1.302 1.62-2.045C6.384 8.444 8.65 7 12 7s5.616 1.445 7.086 2.914a11.434 11.434 0 0 1 1.62 2.045l.025.041a11.434 11.434 0 0 1-1.645 2.086C17.616 15.556 15.35 17 12 17s-5.616-1.445-7.086-2.914A11.434 11.434 0 0 1 3.27 12Z"
    fill="#ffffff"
  />
  <path d="M14 12a2 2 0 1 1-4 0 2 2 0 0 1 4 0Z" fill="#ffffff" />
</svg>
