<svg width="135" height="40" fill="none" xmlns="http://www.w3.org/2000/svg">
  <path
    d="M5.001 39.498h124.99c2.474 0 4.5-2.027 4.5-4.498V5c0-2.473-2.027-4.5-4.498-4.5H5A4.516 4.516 0 0 0 .5 5v29.998c0 3.002 2 4.5 4.501 4.5Z"
    fill="#191C23"
    stroke="#868686"
  />
  <path
    d="M68.13 21.749c-2.35 0-4.268 1.789-4.268 4.255 0 2.447 1.916 4.252 4.269 4.252 2.35 0 4.269-1.805 4.269-4.253 0-2.465-1.916-4.254-4.27-4.254Zm0 6.831c-1.288 0-2.4-1.064-2.4-2.576 0-1.532 1.111-2.58 2.4-2.58 1.29 0 2.4 1.048 2.4 2.58.002 1.512-1.11 2.576-2.4 2.576Zm-9.313-6.831c-2.35 0-4.269 1.789-4.269 4.255 0 2.447 1.916 4.252 4.27 4.252 2.35 0 4.268-1.805 4.268-4.253.003-2.465-1.916-4.254-4.269-4.254Zm0 6.831c-1.287 0-2.399-1.064-2.399-2.576 0-1.532 1.112-2.58 2.4-2.58 1.289 0 2.4 1.048 2.4 2.58 0 1.512-1.112 2.576-2.401 2.576ZM47.74 23.055v1.803h4.317c-.13 1.016-.466 1.756-.982 2.272-.629.629-1.611 1.32-3.335 1.32-2.658 0-4.737-2.141-4.737-4.8 0-2.657 2.077-4.8 4.737-4.8 1.434 0 2.48.563 3.254 1.288l1.272-1.273c-1.08-1.03-2.514-1.82-4.526-1.82-3.64 0-6.701 2.965-6.701 6.605 0 3.643 3.06 6.606 6.701 6.606 1.964 0 3.446-.646 4.608-1.854 1.19-1.19 1.563-2.867 1.563-4.22 0-.419-.032-.805-.096-1.127H47.74Zm45.306 1.402c-.356-.95-1.434-2.706-3.64-2.706-2.19 0-4.01 1.724-4.01 4.255 0 2.384 1.803 4.252 4.219 4.252 1.95 0 3.075-1.191 3.544-1.885l-1.45-.967c-.486.708-1.144 1.176-2.094 1.176-.951 0-1.628-.434-2.063-1.287l5.686-2.353-.192-.485Zm-5.8 1.417c-.047-1.645 1.273-2.48 2.224-2.48.742 0 1.371.37 1.58.902l-3.804 1.578Zm-4.623 4.125h1.868V17.497h-1.868v12.502Zm-3.062-7.3h-.065c-.417-.499-1.224-.95-2.238-.95-2.127 0-4.074 1.868-4.074 4.27 0 2.383 1.95 4.235 4.074 4.235 1.016 0 1.82-.452 2.238-.968h.065v.613c0 1.627-.87 2.497-2.271 2.497-1.143 0-1.854-.822-2.142-1.513l-1.628.677c.466 1.128 1.707 2.514 3.77 2.514 2.19 0 4.043-1.29 4.043-4.43v-7.636h-1.772v.692-.001ZM77.42 28.58c-1.289 0-2.367-1.078-2.367-2.56 0-1.498 1.078-2.593 2.367-2.593 1.273 0 2.272 1.095 2.272 2.593 0 1.482-1 2.56-2.272 2.56Zm24.38-11.081h-4.47v12.5h1.864v-4.735h2.606c2.069 0 4.1-1.498 4.1-3.883 0-2.386-2.031-3.882-4.1-3.882Zm.048 6.024h-2.654v-4.286h2.654c1.396 0 2.188 1.156 2.188 2.142 0 .97-.792 2.144-2.188 2.144Zm11.531-1.795c-1.35 0-2.75.596-3.329 1.912l1.657.692c.353-.692 1.014-.918 1.705-.918.966 0 1.946.58 1.963 1.607v.13c-.339-.192-1.062-.483-1.946-.483-1.784 0-3.602.98-3.602 2.815 0 1.674 1.464 2.75 3.103 2.75 1.256 0 1.945-.562 2.38-1.223h.065v.966h1.801v-4.794c-.002-2.217-1.657-3.454-3.797-3.454Zm-.224 6.85c-.612 0-1.465-.305-1.465-1.062 0-.965 1.062-1.333 1.979-1.333.82 0 1.206.178 1.706.418a2.263 2.263 0 0 1-2.22 1.977ZM123.734 22l-2.14 5.42h-.064L119.31 22h-2.01l3.329 7.575-1.897 4.212h1.945L125.807 22h-2.073Zm-16.805 7.999h1.866v-12.5h-1.866v12.5Z"
    fill="#fff"
  />
  <path
    d="m20.717 19.423-10.647 11.3a2.872 2.872 0 0 0 2.78 2.136c.513 0 1.016-.137 1.458-.396l.033-.021 11.984-6.915-5.608-6.104Z"
    fill="#EA4435"
  />
  <path
    d="m31.487 17.499-.01-.006-5.175-3-5.828 5.187 5.85 5.847 5.144-2.97a2.88 2.88 0 0 0 .019-5.058Z"
    fill="#F9BC15"
  />
  <path
    d="M10.07 9.276a2.76 2.76 0 0 0-.098.74v19.966c0 .257.033.504.098.74l11.01-11.01L10.07 9.276Z"
    fill="#547DBF"
  />
  <path
    d="m20.794 20 5.51-5.508-11.969-6.94a2.88 2.88 0 0 0-4.265 1.722v.002L20.794 20Z"
    fill="#33A851"
  />
  <path
    d="M43.066 12.845a3.095 3.095 0 0 1-1.17-1.174 3.28 3.28 0 0 1-.427-1.653c0-.604.142-1.154.426-1.653a3.1 3.1 0 0 1 1.17-1.175 3.253 3.253 0 0 1 1.65-.426c.933 0 1.702.339 2.304 1.018l-.67.652a2.193 2.193 0 0 0-.717-.575 2.062 2.062 0 0 0-.91-.192c-.424 0-.808.096-1.157.29a2.14 2.14 0 0 0-.828.828 2.45 2.45 0 0 0-.305 1.23c0 .465.103.874.305 1.231.203.358.479.634.828.826a2.33 2.33 0 0 0 1.158.292c.708 0 1.301-.292 1.782-.88l.688.661c-.299.35-.67.633-1.087.828-.437.2-.912.3-1.392.296a3.23 3.23 0 0 1-1.648-.424Zm5.197-5.941h.956v3.02h.053l2.48-3.02h1.202v.052l-2.627 3.114 2.767 3.009v.052H51.84l-2.566-2.854h-.052v2.854h-.958l-.001-6.227Zm7.777 0h1.087l2.357 6.23H58.43l-.575-1.601h-2.54l-.576 1.6h-1.053l2.354-6.229Zm1.505 3.74-.696-1.91-.234-.712h-.052l-.234.713-.696 1.91h1.912v-.001Zm5.542-.286c-.39.343-.868.514-1.436.514-.376 0-.717-.077-1.022-.23a1.72 1.72 0 0 1-.717-.664 1.96 1.96 0 0 1-.26-1.026V6.908h.965v1.879c0 .376.11.669.33.873.22.207.516.31.888.31.505 0 .921-.197 1.254-.592V6.904h.948v6.23h-.948v-2.776h-.002Zm4.139-3.454h1.087l2.357 6.23h-1.053l-.575-1.601H66.5l-.575 1.6h-1.053l2.354-6.229Zm1.507 3.74-.696-1.91-.234-.712h-.052l-.235.713-.695 1.91h1.912v-.001Zm3.557-2.835h-1.75v-.905h4.445v.905h-1.74v5.324h-.958V7.81h.002l.001-.001Zm3.69-.905h.956v2.22h1.323c.389 0 .748.079 1.079.24.33.158.593.39.791.695.197.306.297.66.297 1.066a1.91 1.91 0 0 1-1.088 1.766c-.33.163-.69.244-1.079.244h-2.28v-6.23l.001-.001Zm2.348 5.333c.226 0 .426-.052.6-.157.173-.104.307-.242.401-.414.092-.171.14-.353.14-.543a1.125 1.125 0 0 0-1.14-1.122h-1.392v2.236h1.391Zm5.176-5.333h.949v3.446l-.052 1.201h.052l2.792-4.645h1.086v6.23h-.948V9.603l.052-1.202h-.052l-2.836 4.731h-1.045V6.904h.002Zm6.702 5.968c-.39-.267-.66-.66-.805-1.183l.878-.349c.075.324.222.581.439.765.217.186.474.278.769.278.32 0 .591-.1.817-.3a.953.953 0 0 0 .338-.745.904.904 0 0 0-.165-.526 1.14 1.14 0 0 0-.453-.378 1.436 1.436 0 0 0-.627-.14h-.514v-.836h.462c.313 0 .574-.086.783-.257a.848.848 0 0 0 .314-.692.805.805 0 0 0-.29-.635 1.077 1.077 0 0 0-.728-.253.98.98 0 0 0-.66.234c-.18.157-.305.343-.374.556l-.844-.35a2.05 2.05 0 0 1 .666-.908c.322-.264.73-.395 1.223-.395.376 0 .712.073 1.005.221.292.149.522.351.687.608.165.26.249.55.249.874 0 .604-.263 1.049-.792 1.34v.052c.297.133.537.328.723.583.186.255.278.566.278.932 0 .353-.092.675-.274.965a1.91 1.91 0 0 1-.752.683c-.32.165-.675.249-1.07.249a2.187 2.187 0 0 1-1.283-.393Z"
    fill="#fff"
  />
</svg>
