<svg width="135" height="40" fill="none" xmlns="http://www.w3.org/2000/svg">
  <path
    d="M5.001 39.498c2.501-.002 124.99 0 124.99 0 2.474 0 4.5-2.027 4.5-4.498V5c0-2.473-2.027-4.5-4.498-4.5H5A4.516 4.516 0 0 0 .5 5v29.998c0 2.502 2 4.502 4.501 4.5Z"
    fill="#191C23"
    stroke="#868686"
  />
  <path
    d="M27.648 19.4a5.68 5.68 0 0 1 2.706-4.766 5.816 5.816 0 0 0-4.582-2.477c-1.928-.203-3.797 1.153-4.78 1.153-1.001 0-2.514-1.133-4.142-1.1a6.102 6.102 0 0 0-5.136 3.132c-2.22 3.845-.564 9.494 1.563 12.602 1.064 1.521 2.308 3.221 3.935 3.16 1.593-.065 2.188-1.015 4.11-1.015 1.904 0 2.462 1.016 4.123.977 1.708-.027 2.785-1.528 3.812-3.064A12.585 12.585 0 0 0 31 24.452a5.49 5.49 0 0 1-3.352-5.052Zm-3.136-9.287a5.594 5.594 0 0 0 1.28-4.007 5.692 5.692 0 0 0-3.683 1.905 5.323 5.323 0 0 0-1.313 3.86 4.705 4.705 0 0 0 3.716-1.758Zm24.791 17.024h-4.734l-1.137 3.357h-2.005l4.484-12.418h2.083l4.483 12.418h-2.039l-1.136-3.357h.001Zm-4.244-1.549h3.752l-1.85-5.447h-.051l-1.85 5.447h-.001Zm17.101.379c0 2.814-1.506 4.621-3.778 4.621a3.069 3.069 0 0 1-2.849-1.584h-.043v4.485h-1.858v-12.05h1.799v1.507h.034a3.212 3.212 0 0 1 2.882-1.6c2.298 0 3.813 1.816 3.813 4.621Zm-1.91 0c0-1.833-.947-3.038-2.393-3.038-1.42 0-2.375 1.23-2.375 3.038 0 1.825.955 3.046 2.375 3.046 1.446 0 2.393-1.196 2.393-3.046Zm11.875 0c0 2.814-1.506 4.621-3.778 4.621a3.07 3.07 0 0 1-2.85-1.584h-.042v4.485h-1.859v-12.05h1.8v1.507h.033a3.21 3.21 0 0 1 2.883-1.6c2.298 0 3.813 1.816 3.813 4.621Zm-1.91 0c0-1.833-.948-3.038-2.393-3.038-1.42 0-2.375 1.23-2.375 3.038 0 1.825.955 3.046 2.375 3.046 1.445 0 2.393-1.196 2.393-3.046Zm8.495 1.067c.138 1.231 1.335 2.04 2.97 2.04 1.566 0 2.693-.809 2.693-1.92 0-.963-.68-1.54-2.29-1.936l-1.609-.387c-2.28-.551-3.339-1.618-3.339-3.348 0-2.143 1.868-3.614 4.52-3.614 2.623 0 4.422 1.471 4.483 3.614H84.26c-.112-1.24-1.136-1.987-2.633-1.987s-2.522.757-2.522 1.858c0 .878.654 1.395 2.255 1.79l1.368.336c2.548.602 3.607 1.626 3.607 3.442 0 2.324-1.85 3.779-4.794 3.779-2.754 0-4.614-1.421-4.734-3.667h1.903Zm11.636-7.737v2.143h1.722v1.472h-1.722v4.99c0 .776.345 1.138 1.102 1.138.204-.004.408-.018.611-.043v1.462a5.03 5.03 0 0 1-1.032.086c-1.833 0-2.548-.688-2.548-2.444v-5.19h-1.316V21.44h1.316v-2.143h1.867Zm2.719 6.67c0-2.848 1.678-4.638 4.294-4.638 2.625 0 4.295 1.79 4.295 4.638 0 2.857-1.66 4.639-4.295 4.639-2.632 0-4.294-1.782-4.294-4.639Zm6.696 0c0-1.954-.896-3.107-2.402-3.107-1.505 0-2.4 1.162-2.4 3.107 0 1.962.894 3.107 2.4 3.107 1.506 0 2.402-1.145 2.402-3.107Zm3.425-4.527h1.773v1.541h.043a2.162 2.162 0 0 1 2.177-1.636c.214 0 .428.023.637.07v1.738a2.594 2.594 0 0 0-.835-.112 1.876 1.876 0 0 0-1.937 2.083v5.37h-1.858V21.44Zm13.199 6.394c-.25 1.644-1.851 2.772-3.899 2.772-2.633 0-4.268-1.765-4.268-4.596 0-2.84 1.643-4.681 4.19-4.681 2.505 0 4.08 1.72 4.08 4.465v.637h-6.394v.113a2.35 2.35 0 0 0 1.458 2.39c.31.127.643.186.977.174a2.052 2.052 0 0 0 2.091-1.274h1.765Zm-6.282-2.702h4.526a2.178 2.178 0 0 0-2.221-2.298 2.289 2.289 0 0 0-2.305 2.298ZM43.39 11.251h.797a1.001 1.001 0 0 0 1.126-.951c0-.55-.415-.906-1.117-.906a1.063 1.063 0 0 0-1.204.935h-.876a1.871 1.871 0 0 1 2.109-1.745c1.174 0 2.002.657 2.002 1.604a1.386 1.386 0 0 1-1.084 1.365v.07a1.39 1.39 0 0 1 1.327 1.443 1.993 1.993 0 0 1-2.229 1.774A1.988 1.988 0 0 1 42 13.074h.89c.053.571.578.94 1.351.94.774 0 1.279-.414 1.279-.997 0-.591-.476-.956-1.307-.956h-.823v-.81Zm4.44 2.171c0-.81.604-1.278 1.674-1.344l1.22-.07v-.39c0-.475-.314-.743-.922-.743-.496 0-.84.182-.939.5h-.86c.09-.773.82-1.27 1.84-1.27 1.13 0 1.766.563 1.766 1.514v3.077h-.856v-.633h-.07a1.516 1.516 0 0 1-1.353.707 1.36 1.36 0 0 1-1.5-1.348Zm2.894-.385v-.376l-1.1.07c-.62.042-.901.253-.901.65 0 .405.351.64.835.64a1.06 1.06 0 0 0 1.166-.984Zm3.244-2.097v3.756h-.889v-4.503h2.965v.748h-2.076v-.001Zm7.462 1.502c0 1.43-.724 2.328-1.86 2.328a1.468 1.468 0 0 1-1.386-.757h-.07v2.18h-.89v-6h.856v.744h.067a1.563 1.563 0 0 1 1.414-.82c1.145 0 1.869.894 1.869 2.325Zm-.914 0c0-.951-.45-1.526-1.203-1.526-.748 0-1.216.587-1.216 1.53 0 .938.468 1.526 1.212 1.526.756 0 1.207-.575 1.207-1.53Zm2.097 3.866v-.765c.096.012.193.018.29.017a.77.77 0 0 0 .815-.629l.066-.219-1.63-4.52h.968l1.129 3.577h.07l1.125-3.576h.943l-1.679 4.689c-.385 1.095-.81 1.447-1.728 1.447-.075 0-.286-.009-.369-.021Zm4.468-2.89h.885c.087.397.459.604.98.604.591 0 .954-.261.954-.666 0-.434-.326-.642-.955-.642h-.673v-.69h.662c.537 0 .81-.206.81-.583 0-.33-.264-.583-.81-.583-.498 0-.86.211-.918.566h-.857a1.578 1.578 0 0 1 1.775-1.318c1.07 0 1.682.483 1.682 1.244a.925.925 0 0 1-.71.922v.07a1.01 1.01 0 0 1 .88 1.014c0 .856-.728 1.422-1.84 1.422-.984 0-1.783-.45-1.865-1.36Zm4.985 1.278v-4.503h.88v3.097h.071l2.075-3.097h.881v4.503h-.88v-3.114h-.067l-2.08 3.114h-.88Zm8.76-3.756h-1.418v3.755h-.89v-3.754H77.1v-.748h3.726v.748-.001Zm4.787 2.54a1.83 1.83 0 0 1-1.952 1.303 2.045 2.045 0 0 1-2.08-2.325 2.078 2.078 0 0 1 2.076-2.352c1.253 0 2.01.856 2.01 2.27v.31h-3.18v.05a1.19 1.19 0 0 0 1.199 1.29 1.078 1.078 0 0 0 1.07-.546h.857Zm-3.126-1.451h2.273a1.086 1.086 0 0 0-1.107-1.167 1.152 1.152 0 0 0-1.166 1.167Zm6.893-1.836h2.03c.882 0 1.398.446 1.398 1.145a.967.967 0 0 1-.76.95v.071a1.028 1.028 0 0 1 .962 1.038c0 .786-.59 1.298-1.579 1.298h-2.05l-.001-4.502Zm.881.682v1.166h.881c.537 0 .794-.207.794-.588 0-.35-.224-.578-.695-.578h-.98Zm0 1.82v1.318h1.054c.525 0 .807-.232.807-.657 0-.451-.319-.662-.918-.662l-.943.001Z"
    fill="#fff"
  />
</svg>
