<svg width="169" height="19" fill="none" xmlns="http://www.w3.org/2000/svg">
  <path
    fill-rule="evenodd"
    clip-rule="evenodd"
    d="M59.727 9.074C59.727 5.518 57.207 0 48.562 0c-8.835 0-11.48 5.485-11.48 9.074 0 3.582 1.951 9 11.48 9.066 8.959.1 11.165-5.484 11.165-9.066Zm-4.76-.033c0 2.692-1.802 5.767-6.405 5.8-5.297.059-6.653-3.107-6.653-5.8 0-2.659 2.273-5.8 6.653-5.8 4.388 0 6.405 3.133 6.405 5.8Z"
    fill="#231F20"
  />
  <path
    d="M11 3.357c2.488 0 5.893 1.114 6.273 3.997v-.008h5.058c-.728-5.9-7.224-7.263-11.513-7.263C5.364.083 0 2.81 0 9.25c0 6.373 5.868 8.817 10.818 8.817 5.645 0 11.29-2.502 11.29-7.579h-4.67c-.48 3.457-4.107 4.47-6.438 4.47-4.57 0-6.339-3.614-6.339-5.957 0-2.344 1.769-5.643 6.339-5.643Z"
    fill="#231F20"
  />
  <path
    fill-rule="evenodd"
    clip-rule="evenodd"
    d="M80.984.216h-5.926l-9.653 7.96V.217h-4.827v17.7h4.827v-4.604l3.661-3.041 6.306 7.645h11.041V5.543h.025l5.43 12.373h2.52L99.72 5.385h.066v12.531h9.141l1.454-3.141h10.091l1.562 3.141h5.364l-9.05-17.7h-5.074L104.578 17.9V.216H97.95l-4.727 10.977L88.273.216H81.62v17.7l-8.77-10.72 8.133-6.98ZM115.24 4.53l-3.091 6.531h6.405L115.24 4.53Z"
    fill="#231F20"
  />
  <path
    d="M146.752.216h-4.785v7.246h-9.769V.216h-4.785v17.7h4.785v-6.79h9.769v6.79h4.785V.216Zm21.413 0h-4.785v7.246h-9.768V.216h-4.786v17.7h4.786v-6.79h9.768v6.79h4.785V.216ZM21.463 3.582h6v14.334h4.818V3.582h6.025V.216H21.463v3.366Z"
    fill="#231F20"
  />
</svg>
