<svg width="24" height="24" fill="none" xmlns="http://www.w3.org/2000/svg">
  <path
    fill-rule="evenodd"
    clip-rule="evenodd"
    d="m19.672 14.388-.003.003a8.47 8.47 0 0 1-.432.437c-.183.179-.433.42-.726.703a2648.443 2648.443 0 0 1-4.19 4.017l-.939.898L12 19s5.99-5.725 6.153-5.913C19.103 11.979 20 10.931 20 9.253 20 6.554 18.47 5 16.133 5c-1.272 0-2.215.827-2.914 1.751-.422.558-.756 1.152-1.02 1.62-.07.127-.136.244-.197.348a14.559 14.559 0 0 1-.3-.558c-.231-.442-.503-.964-.853-1.454C10.204 5.8 9.294 5 7.893 5 5.63 5 4 6.554 4 9.253c0 1.656.94 2.764 1.85 3.832C6.01 13.275 12 19 12 19l-1.382 1.446-.939-.898a3010.442 3010.442 0 0 1-4.189-4.019c-.293-.282-.543-.524-.726-.703l-.031-.03a8.028 8.028 0 0 1-.406-.414l-.088-.103C3.374 13.265 2 11.657 2 9.253c0-1.754.536-3.348 1.649-4.517C4.767 3.561 6.29 3 7.893 3c1.956 0 3.299.99 4.168 2.01.848-.958 2.187-2.01 4.072-2.01 1.627 0 3.16.554 4.275 1.753 1.1 1.184 1.592 2.78 1.592 4.5 0 2.425-1.33 3.973-2.237 5.03l-.09.105ZM12 19l1.382 1.446L12 21.766l-1.382-1.32L12 19Z"
    fill="#231F20"
  />
</svg>
