<svg width="36px" height="27px" viewBox="0 0 36 27" fill="none" xmlns="http://www.w3.org/2000/svg">
  <path
    d="M34.4378 26.4594V26.5292H34.5021C34.5164 26.5292 34.5286 26.5258 34.5374 26.5203C34.5455 26.5149 34.5503 26.5054 34.5503 26.4939C34.5503 26.4824 34.5455 26.4736 34.5374 26.4682C34.5286 26.4621 34.5164 26.4594 34.5021 26.4594H34.4378ZM34.5028 26.4106C34.536 26.4106 34.5618 26.418 34.5801 26.4329C34.5984 26.4478 34.6072 26.4682 34.6072 26.4939C34.6072 26.5156 34.6004 26.5332 34.5855 26.5475C34.5713 26.561 34.5509 26.5698 34.5238 26.5732L34.6092 26.6715H34.5428L34.4635 26.5739H34.4378V26.6715H34.3822V26.4106H34.5028ZM34.4859 26.7616C34.5164 26.7616 34.5448 26.7555 34.5706 26.744C34.597 26.7324 34.62 26.7169 34.6397 26.6972C34.6594 26.6776 34.6749 26.6545 34.6865 26.6274C34.6973 26.601 34.7034 26.5725 34.7034 26.542C34.7034 26.5115 34.6973 26.4831 34.6865 26.4567C34.6749 26.4302 34.6594 26.4065 34.6397 26.3869C34.62 26.3672 34.597 26.3516 34.5706 26.3401C34.5448 26.3293 34.5164 26.3238 34.4859 26.3238C34.4554 26.3238 34.4263 26.3293 34.3998 26.3401C34.3727 26.3516 34.349 26.3672 34.3294 26.3869C34.3097 26.4065 34.2941 26.4302 34.2833 26.4567C34.2718 26.4831 34.2663 26.5115 34.2663 26.542C34.2663 26.5725 34.2718 26.601 34.2833 26.6274C34.2941 26.6545 34.3097 26.6776 34.3294 26.6972C34.349 26.7169 34.3727 26.7324 34.3998 26.744C34.4263 26.7555 34.4554 26.7616 34.4859 26.7616ZM34.4859 26.2608C34.5259 26.2608 34.5625 26.2683 34.5977 26.2832C34.6322 26.2974 34.6621 26.3177 34.6885 26.3435C34.7142 26.3686 34.7346 26.3984 34.7495 26.4329C34.7644 26.4668 34.7718 26.5034 34.7718 26.542C34.7718 26.5807 34.7644 26.6172 34.7495 26.6511C34.7346 26.685 34.7142 26.7148 34.6885 26.7406C34.6621 26.7656 34.6322 26.786 34.5977 26.8009C34.5625 26.8158 34.5259 26.8232 34.4859 26.8232C34.4452 26.8232 34.408 26.8158 34.3727 26.8009C34.3375 26.786 34.307 26.7656 34.2812 26.7406C34.2555 26.7148 34.2352 26.685 34.2203 26.6511C34.2054 26.6172 34.1979 26.5807 34.1979 26.542C34.1979 26.5034 34.2054 26.4668 34.2203 26.4329C34.2352 26.3984 34.2555 26.3686 34.2812 26.3435C34.307 26.3177 34.3375 26.2974 34.3727 26.2832C34.408 26.2683 34.4452 26.2608 34.4859 26.2608ZM8.08544 25.2559C8.08544 24.7586 8.41137 24.35 8.94397 24.35C9.45286 24.35 9.79641 24.7409 9.79641 25.2559C9.79641 25.7709 9.45286 26.1619 8.94397 26.1619C8.41137 26.1619 8.08544 25.7533 8.08544 25.2559ZM10.3764 25.2559V23.8411H9.76117V24.1846C9.56602 23.9298 9.2699 23.7699 8.8674 23.7699C8.07392 23.7699 7.45187 24.392 7.45187 25.2559C7.45187 26.1206 8.07392 26.7419 8.8674 26.7419C9.2699 26.7419 9.56602 26.582 9.76117 26.3272V26.6708H10.3764V25.2559ZM31.1683 25.2559C31.1683 24.7586 31.4942 24.35 32.0268 24.35C32.5364 24.35 32.8793 24.7409 32.8793 25.2559C32.8793 25.7709 32.5364 26.1619 32.0268 26.1619C31.4942 26.1619 31.1683 25.7533 31.1683 25.2559ZM33.46 25.2559V22.7047H32.844V24.1846C32.6489 23.9298 32.3528 23.7699 31.9503 23.7699C31.1568 23.7699 30.5347 24.392 30.5347 25.2559C30.5347 26.1206 31.1568 26.7419 31.9503 26.7419C32.3528 26.7419 32.6489 26.582 32.844 26.3272V26.6708H33.46V25.2559ZM18.0138 24.3208C18.4102 24.3208 18.665 24.5695 18.73 25.0072H17.2617C17.3274 24.5986 17.5754 24.3208 18.0138 24.3208ZM18.026 23.7699C17.1966 23.7699 16.6166 24.3737 16.6166 25.2559C16.6166 26.1558 17.2203 26.7419 18.0673 26.7419C18.4936 26.7419 18.8839 26.6355 19.2274 26.3455L18.9259 25.8895C18.6887 26.0785 18.3865 26.1856 18.1026 26.1856C17.7062 26.1856 17.345 26.002 17.2562 25.4924H19.3575C19.3636 25.4158 19.3697 25.3386 19.3697 25.2559C19.3636 24.3737 18.8188 23.7699 18.026 23.7699ZM25.4553 25.2559C25.4553 24.7586 25.7813 24.35 26.3139 24.35C26.8228 24.35 27.1663 24.7409 27.1663 25.2559C27.1663 25.7709 26.8228 26.1619 26.3139 26.1619C25.7813 26.1619 25.4553 25.7533 25.4553 25.2559ZM27.7464 25.2559V23.8411H27.1311V24.1846C26.9352 23.9298 26.6398 23.7699 26.2373 23.7699C25.4438 23.7699 24.8218 24.392 24.8218 25.2559C24.8218 26.1206 25.4438 26.7419 26.2373 26.7419C26.6398 26.7419 26.9352 26.582 27.1311 26.3272V26.6708H27.7464V25.2559ZM21.9806 25.2559C21.9806 26.1145 22.5782 26.7419 23.4903 26.7419C23.9165 26.7419 24.2004 26.6471 24.508 26.4045L24.2126 25.9071C23.9815 26.0731 23.739 26.1619 23.472 26.1619C22.9807 26.1558 22.6195 25.8007 22.6195 25.2559C22.6195 24.7111 22.9807 24.3561 23.472 24.35C23.739 24.35 23.9815 24.4387 24.2126 24.6047L24.508 24.1074C24.2004 23.8648 23.9165 23.7699 23.4903 23.7699C22.5782 23.7699 21.9806 24.3974 21.9806 25.2559ZM29.9134 23.7699C29.5583 23.7699 29.3272 23.9359 29.1673 24.1846V23.8411H28.5575V26.6708H29.1734V25.0845C29.1734 24.6163 29.3747 24.3561 29.7772 24.3561C29.9018 24.3561 30.0319 24.3737 30.162 24.4272L30.3518 23.8472C30.2156 23.7936 30.038 23.7699 29.9134 23.7699ZM13.4196 24.066C13.1235 23.8709 12.7156 23.7699 12.2656 23.7699C11.5487 23.7699 11.0873 24.1135 11.0873 24.6759C11.0873 25.1373 11.4308 25.4219 12.0637 25.5107L12.3544 25.552C12.6918 25.5995 12.8511 25.6882 12.8511 25.8482C12.8511 26.067 12.6261 26.1917 12.206 26.1917C11.7798 26.1917 11.4721 26.0555 11.2648 25.8956L10.9748 26.3747C11.3122 26.6233 11.7384 26.7419 12.1999 26.7419C13.0171 26.7419 13.4907 26.357 13.4907 25.8183C13.4907 25.321 13.1181 25.0608 12.5021 24.972L12.2121 24.93C11.9458 24.8948 11.7323 24.8419 11.7323 24.6522C11.7323 24.4448 11.9336 24.3208 12.271 24.3208C12.6322 24.3208 12.9819 24.457 13.1533 24.5634L13.4196 24.066ZM21.3585 23.7699C21.0034 23.7699 20.7724 23.9359 20.6131 24.1846V23.8411H20.0033V26.6708H20.6186V25.0845C20.6186 24.6163 20.8198 24.3561 21.2223 24.3561C21.347 24.3561 21.4771 24.3737 21.6072 24.4272L21.7969 23.8472C21.6607 23.7936 21.4832 23.7699 21.3585 23.7699ZM16.1077 23.8411H15.1014V22.9825H14.4794V23.8411H13.9054V24.4035H14.4794V25.6943C14.4794 26.3509 14.7342 26.7419 15.4619 26.7419C15.7289 26.7419 16.0365 26.6593 16.2317 26.5231L16.0542 25.9959C15.8705 26.1023 15.6693 26.1558 15.5094 26.1558C15.2017 26.1558 15.1014 25.9661 15.1014 25.6821V24.4035H16.1077V23.8411ZM6.90775 26.6708V24.8948C6.90775 24.226 6.48153 23.776 5.79443 23.7699C5.43326 23.7638 5.06058 23.8763 4.7997 24.2734C4.60454 23.9597 4.29691 23.7699 3.86459 23.7699C3.56238 23.7699 3.26694 23.8587 3.03587 24.19V23.8411H2.41992V26.6708H3.04129V25.1021C3.04129 24.6108 3.31369 24.35 3.73449 24.35C4.14309 24.35 4.34976 24.6163 4.34976 25.096V26.6708H4.97181V25.1021C4.97181 24.6108 5.25573 24.35 5.66433 24.35C6.08445 24.35 6.2857 24.6163 6.2857 25.096V26.6708H6.90775Z"
    fill="white"
  />
  <path
    d="M34.8178 17.2604V16.8471H34.71L34.5853 17.131L34.4613 16.8471H34.3529V17.2604H34.4295V16.9487L34.546 17.2177H34.6253L34.7419 16.9481V17.2604H34.8178ZM34.134 17.2604V16.9176H34.2723V16.8478H33.9199V16.9176H34.0582V17.2604H34.134Z"
    fill="#F79410"
  />
  <path d="M22.5653 19.0382H13.2402V2.27948H22.5653V19.0382Z" fill="#FF5F00" />
  <path
    d="M13.8388 10.6581C13.8388 7.25848 15.4305 4.23023 17.9092 2.27871C16.0966 0.851658 13.809 -9.91821e-05 11.3228 -9.91821e-05C5.43708 -9.91821e-05 0.666016 4.77164 0.666016 10.6581C0.666016 16.5445 5.43708 21.3162 11.3228 21.3162C13.809 21.3162 16.0966 20.4645 17.9092 19.0374C15.4305 17.0859 13.8388 14.0576 13.8388 10.6581Z"
    fill="#EB001B"
  />
  <path
    d="M35.1423 10.6581C35.1423 16.5445 30.3712 21.3162 24.4855 21.3162C21.9993 21.3162 19.7117 20.4645 17.8984 19.0374C20.3778 17.0859 21.9695 14.0576 21.9695 10.6581C21.9695 7.25848 20.3778 4.23023 17.8984 2.27871C19.7117 0.851658 21.9993 -9.91821e-05 24.4855 -9.91821e-05C30.3712 -9.91821e-05 35.1423 4.77164 35.1423 10.6581Z"
    fill="#F79E1B"
  />
</svg>
