<svg width="50px" height="32px" viewBox="0 0 50 32" fill="none" xmlns="http://www.w3.org/2000/svg">
  <path d="M21.3938 23.2742H17.3945L19.8959 7.60114H23.895L21.3938 23.2742Z" fill="#00579F" />
  <path
    d="M35.8912 7.98367C35.1023 7.66655 33.8512 7.31641 32.3042 7.31641C28.3548 7.31641 25.5737 9.4505 25.5566 12.5016C25.5238 14.7527 27.5478 16.003 29.0616 16.7536C30.6088 17.5206 31.1348 18.0212 31.1348 18.7049C31.1191 19.7549 29.8845 20.2389 28.7331 20.2389C27.1364 20.2389 26.2809 19.9893 24.9808 19.4052L24.4542 19.1548L23.8945 22.673C24.8325 23.106 26.5606 23.4903 28.3548 23.5072C32.5511 23.5072 35.283 21.4061 35.3153 18.1546C35.3313 16.3705 34.2626 15.0034 31.9584 13.8862C30.5596 13.1691 29.703 12.6855 29.703 11.9518C29.7194 11.2848 30.4275 10.6015 32.0065 10.6015C33.3066 10.5681 34.2619 10.8848 34.9856 11.2017L35.3473 11.3681L35.8912 7.98367Z"
    fill="#00579F"
  />
  <path
    d="M41.2051 17.7218C41.5344 16.8214 42.8017 13.3366 42.8017 13.3366C42.7851 13.3701 43.1304 12.4196 43.3279 11.8361L43.6074 13.1866C43.6074 13.1866 44.3647 16.9382 44.5292 17.7218C43.9042 17.7218 41.995 17.7218 41.2051 17.7218ZM46.1416 7.60114H43.0482C42.0943 7.60114 41.3695 7.88435 40.9579 8.90154L35.0176 23.274H39.2139C39.2139 23.274 39.9047 21.3396 40.0532 20.9229C40.5136 20.9229 44.5957 20.9229 45.1879 20.9229C45.3027 21.4732 45.6651 23.274 45.6651 23.274H49.368L46.1416 7.60114Z"
    fill="#00579F"
  />
  <path
    d="M14.0535 7.60114L10.1369 18.2887L9.7089 16.1211C8.98481 13.62 6.7139 10.9027 4.17969 9.55152L7.76713 23.2576H11.9962L18.2823 7.60114H14.0535Z"
    fill="#00579F"
  />
  <path
    d="M6.50021 7.60114H0.0658263L0 7.91781C5.01922 9.21844 8.34336 12.3535 9.7091 16.1218L8.31034 8.9186C8.08005 7.91759 7.37236 7.63415 6.50021 7.60114Z"
    fill="#FAA61A"
  />
</svg>
