<svg width="64px" height="32px" viewBox="0 0 64 32" fill="none" xmlns="http://www.w3.org/2000/svg">
  <path
    fillRule="evenodd"
    clipRule="evenodd"
    d="M10.5302 8.41711C11.0322 8.4141 12.5242 8.27973 13.1562 10.4126C13.5818 11.8493 14.26 14.2027 15.1905 17.4729H15.5694C16.5673 14.0253 17.2528 11.6719 17.626 10.4126C18.2645 8.25751 19.8609 8.41715 20.4994 8.41715L25.4259 8.41715V23.7422H20.4047V14.7109H20.068L17.2689 23.7422H13.491L10.6919 14.7042H10.3552V23.7422H5.33398V8.41715L10.5302 8.41711ZM32.6363 8.41715V17.4552H33.0369L36.4417 10.0233C37.1027 8.5443 38.5114 8.41715 38.5114 8.41715H43.3704V23.7422H38.2443V14.7042H37.8437L34.5057 22.1361C33.8447 23.6084 32.3693 23.7422 32.3693 23.7422H27.5102V8.41715H32.6363ZM61.0886 15.6997C60.3735 17.726 58.128 19.1771 55.6419 19.1771H50.2662V23.7422H45.3916V15.6997H61.0886Z"
    fill="#00B24D"
  />
  <path
    fillRule="evenodd"
    clipRule="evenodd"
    d="M55.5809 8.41699H44.8398C45.0955 11.8289 48.0337 14.7497 51.0754 14.7497H61.1312C61.7115 11.914 59.7138 8.41699 55.5809 8.41699Z"
    fill="#02AEFF"
  />
</svg>
